#!OML:ASF E:\Steps\Project 1\Capture day 1\Session 2\Subject.ASF
:FULLY-SPECIFIED
:DEGREES
404
root 11.7562 17.9234 16.654 -154.77 -0.665427 178.177
lowerback -31.1767 -2.4337 -7.39249
upperback 0.325022 -0.957746 -0.195886
thorax 16.8757 -1.21963 3.33471
lowerneck -2.91999 -2.93185 -0.559868
upperneck 13.4534 -3.90018 4.31497
head 4.6039 -1.46455 1.24852
rclavicle 8.54774e-015 1.78906e-014
rhumerus -39.3977 -16.5536 -76.5015
rradius 37.0004
rwrist -3.10409
rhand -4.4259 -53.858
rfingers 7.12502
rthumb 21.3449 277.298
lclavicle 8.54774e-015 1.78906e-014
lhumerus -30.1968 4.42883 79.6085
lradius 27.591
lwrist -1.23662
lhand -21.2102 -12.3538
lfingers 7.12502
lthumb 5.17144 17.5631
rfemur -21.9578 6.85297 18.6083
rtibia 7.78267
rfoot -18.4637 -4.20965
rtoes -23.1654
lfemur -21.0517 -5.88235 -24.4219
ltibia 6.05605
lfoot -5.64879 -6.41232
ltoes -20.6643
405
root 11.7583 17.923 16.6468 -154.831 -0.667698 178.108
lowerback -31.1823 -2.51294 -7.42706
upperback 0.352937 -1.04732 -0.174903
thorax 16.9233 -1.26247 3.33811
lowerneck -2.96403 -2.71924 -0.819217
upperneck 13.1052 -3.63072 4.47129
head 4.50492 -1.355 1.35154
rclavicle 1.08338e-014 2.3059e-014
rhumerus -39.2851 -16.36 -76.5448
rradius 36.921
rwrist -3.32285
rhand -4.53308 -53.6838
rfingers 7.12502
rthumb 21.242 277.46
lclavicle 1.08338e-014 2.3059e-014
lhumerus -30.1013 4.35361 79.7529
lradius 27.6711
lwrist -1.09448
lhand -21.4862 -12.0532
lfingers 7.12502
lthumb 4.90489 17.87
rfemur -21.8882 6.82968 18.5353
rtibia 7.8347
rfoot -18.5898 -4.08759
rtoes -22.2438
lfemur -20.9317 -5.96716 -24.4968
ltibia 6.02121
lfoot -5.68838 -6.36695
ltoes -20.5265
406
root 11.7625 17.9238 16.6431 -154.827 -0.689897 178.078
lowerback -31.0301 -2.59509 -7.43798
upperback 0.219792 -1.19022 -0.143582
thorax 16.7085 -1.32223 3.3196
lowerneck -3.00194 -2.59742 -0.872821
upperneck 13.1419 -3.45559 4.38911
head 4.51703 -1.27611 1.34323
rclavicle 8.84592e-015 1.23246e-014
rhumerus -39.4392 -16.083 -76.5329
rradius 36.8847
rwrist -3.51589
rhand -4.51114 -53.4923
rfingers 7.12502
rthumb 21.263 277.654
lclavicle 8.84592e-015 1.23246e-014
lhumerus -30.2974 4.14189 79.8825
lradius 27.8331
lwrist -0.809032
lhand -21.7992 -11.8231
lfingers 7.12502
lthumb 4.60265 18.1069
rfemur -21.8956 6.84904 18.5086
rtibia 7.8347
rfoot -18.6149 -3.9996
rtoes -21.512
lfemur -20.9286 -5.99326 -24.5026
ltibia 6.02706
lfoot -5.69396 -6.39933
ltoes -20.0161
407
root 11.7668 17.9247 16.6432 -154.71 -0.586497 178.038
lowerback -30.8559 -2.59625 -7.47756
upperback -0.0433067 -1.23646 -0.164316
thorax 16.3142 -1.34062 3.29988
lowerneck -2.97163 -2.58853 -0.780307
upperneck 13.3753 -3.42457 4.26854
head 4.57891 -1.25148 1.29329
rclavicle 4.77083e-015 -9.54166e-015
rhumerus -39.7884 -16.0686 -76.3971
rradius 36.7894
rwrist -3.45793
rhand -4.31662 -53.3012
rfingers 7.12502
rthumb 21.4499 277.866
lclavicle 4.77083e-015 -9.54166e-015
lhumerus -30.6918 3.87257 79.9299
lradius 28.017
lwrist -0.682203
lhand -22.0741 -11.9763
lfingers 7.12502
lthumb 4.33721 17.9593
rfemur -22.0842 6.86792 18.4574
rtibia 7.91719
rfoot -18.5077 -3.99593
rtoes -21.5965
lfemur -21.091 -6.04991 -24.5276
ltibia 6.10461
lfoot -5.76756 -6.28702
ltoes -20.0372
408
root 11.7696 17.9252 16.6418 -154.581 -0.45147 177.966
lowerback -31.2684 -2.65369 -7.66197
upperback 0.0767024 -1.20875 -0.0995494
thorax 16.6472 -1.3568 3.47259
lowerneck -2.99489 -2.60428 -0.848548
upperneck 13.0666 -3.46112 4.29642
head 4.49104 -1.28769 1.31034
rclavicle -1.94809e-014 2.06736e-014
rhumerus -39.485 -16.2127 -76.2427
rradius 36.583
rwrist -3.33553
rhand -4.05085 -53.1506
rfingers 7.12502
rthumb 21.7051 278.046
lclavicle -1.94809e-014 2.06736e-014
lhumerus -30.4411 4.02443 80.0749
lradius 28.0613
lwrist -0.766386
lhand -21.9466 -12.0767
lfingers 7.12502
lthumb 4.46032 17.8564
rfemur -22.281 6.86109 18.3537
rtibia 8.00833
rfoot -18.3517 -3.90423
rtoes -21.1189
lfemur -21.2542 -6.07644 -24.6082
ltibia 6.17116
lfoot -5.82171 -6.19337
ltoes -19.8106
409
root 11.7699 17.9245 16.636 -154.506 -0.429711 177.869
lowerback -31.1101 -2.62892 -7.67677
upperback -0.152647 -1.21568 -0.178631
thorax 16.2947 -1.35437 3.39118
lowerneck -2.92014 -2.58443 -0.906778
upperneck 13.101 -3.44296 4.49202
head 4.49264 -1.26598 1.38214
rclavicle 8.00108e-015 -6.36111e-015
rhumerus -39.7795 -16.4188 -76.0637
rradius 36.349
rwrist -3.06464
rhand -3.82188 -52.938
rfingers 7.12502
rthumb 21.925 278.284
lclavicle 8.00108e-015 -6.36111e-015
lhumerus -30.7727 3.92399 80.0198
lradius 28.1985
lwrist -0.870706
lhand -21.8294 -12.0695
lfingers 7.12502
lthumb 4.5735 17.8611
rfemur -22.3372 6.8239 18.2164
rtibia 7.97108
rfoot -18.1968 -3.65818
rtoes -19.7035
lfemur -21.3268 -6.15027 -24.7111
ltibia 6.20069
lfoot -5.81971 -6.15668
ltoes -19.6271
410
root 11.7702 17.9221 16.6289 -154.481 -0.450638 177.77
lowerback -32.058 -2.65494 -7.50578
upperback 0.428893 -1.11476 -0.394245
thorax 17.4137 -1.31472 3.08138
lowerneck -3.22697 -2.53063 -0.666845
upperneck 12.2013 -3.40716 4.47891
head 4.74103 -1.28191 1.48826
rclavicle 9.44227e-015 5.88403e-014
rhumerus -38.8212 -17.1698 -76.3873
rradius 35.9563
rwrist -2.62451
rhand -3.89287 -52.9123
rfingers 7.12502
rthumb 21.8568 278.302
lclavicle 9.44227e-015 5.88403e-014
lhumerus -29.8201 3.70239 79.9268
lradius 28.191
lwrist -0.860846
lhand -21.8142 -12.2039
lfingers 7.12502
lthumb 4.58822 17.7264
rfemur -22.3181 6.73097 18.1025
rtibia 7.91623
rfoot -18.1356 -3.47429
rtoes -18.8182
lfemur -21.3024 -6.28015 -24.8126
ltibia 6.16685
lfoot -5.83074 -6.08442
ltoes -20.0388
411
root 11.7739 17.9193 16.6256 -154.469 -0.412109 177.711
lowerback -31.0309 -2.64859 -7.75764
upperback -0.304887 -1.23653 -0.279139
thorax 16.0735 -1.36555 3.31443
lowerneck -3.12975 -2.5737 -0.693301
upperneck 13.2746 -3.43193 4.35202
head 4.57502 -1.25062 1.30227
rclavicle -1.2921e-015 7.15625e-015
rhumerus -39.9812 -16.8507 -75.8849
rradius 36.0241
rwrist -2.69461
rhand -4.1445 -53.1153
rfingers 7.12502
rthumb 21.6152 278.071
lclavicle -1.2921e-015 7.15625e-015
lhumerus -30.9806 3.47098 80.0804
lradius 28.474
lwrist -0.710754
lhand -21.5257 -12.2965
lfingers 7.12502
lthumb 4.86671 17.6276
rfemur -22.3308 6.71806 18.0531
rtibia 7.94263
rfoot -18.116 -3.50027
rtoes -18.8547
lfemur -21.2733 -6.22971 -24.9049
ltibia 6.1388
lfoot -5.85391 -6.12053
ltoes -20.9153
412
root 11.7789 17.9178 16.6238 -154.408 -0.338151 177.665
lowerback -31.3936 -2.69434 -7.93104
upperback -0.139063 -1.18746 -0.220562
thorax 16.4344 -1.36956 3.48461
lowerneck -3.23942 -2.58355 -0.684198
upperneck 12.9836 -3.46074 4.30188
head 4.50435 -1.28364 1.28192
rclavicle -2.08724e-015 -9.14409e-015
rhumerus -39.6677 -17.1237 -75.7795
rradius 35.8582
rwrist -2.55411
rhand -4.54911 -54.2852
rfingers 7.12502
rthumb 21.2266 276.857
lclavicle -2.08724e-015 -9.14409e-015
lhumerus -30.6459 3.40914 80.2758
lradius 28.477
lwrist -0.726135
lhand -21.5208 -12.5712
lfingers 7.12502
lthumb 4.8715 17.3528
rfemur -22.4355 6.78964 17.9989
rtibia 8.02961
rfoot -18.1337 -3.54314
rtoes -18.887
lfemur -21.3432 -6.01419 -25.0034
ltibia 6.18172
lfoot -5.87977 -6.30803
ltoes -21.2609
413
root 11.7829 17.9154 16.6193 -154.284 -0.288697 177.628
lowerback -31.3249 -2.65857 -7.96935
upperback -0.360783 -1.1731 -0.252423
thorax 16.132 -1.36356 3.47527
lowerneck -3.21645 -2.64068 -0.59598
upperneck 13.1044 -3.53188 4.25347
head 4.53699 -1.31028 1.2495
rclavicle 1.44119e-015 -2.38542e-015
rhumerus -40.0695 -17.0615 -75.7191
rradius 35.905
rwrist -2.63853
rhand -4.37568 -52.8289
rfingers 7.12502
rthumb 21.3932 278.332
lclavicle 1.44119e-015 -2.38542e-015
lhumerus -30.9622 3.23837 80.3023
lradius 28.5276
lwrist -0.944887
lhand -21.8568 -12.7731
lfingers 7.12502
lthumb 4.54704 17.1581
rfemur -22.5974 6.90744 17.9278
rtibia 8.11479
rfoot -18.199 -3.52922
rtoes -17.8467
lfemur -21.4905 -5.82239 -25.0679
ltibia 6.24011
lfoot -5.88419 -6.50501
ltoes -20.6469
414
root 11.7872 17.9178 16.6192 -154.277 -0.426788 177.587
lowerback -31.4571 -2.72286 -7.99988
upperback -0.27841 -1.22057 -0.258025
thorax 16.2963 -1.39009 3.46194
lowerneck -3.29851 -2.64246 -0.558696
upperneck 12.9785 -3.5497 4.28098
head 4.51272 -1.3222 1.24974
rclavicle -7.35503e-015 2.38542e-015
rhumerus -40.0156 -17.0011 -75.8042
rradius 35.9558
rwrist -2.77418
rhand -4.31206 -52.3507
rfingers 7.12502
rthumb 21.4543 278.817
lclavicle -7.35503e-015 2.38542e-015
lhumerus -30.768 3.17986 80.3306
lradius 28.5333
lwrist -1.013
lhand -22.0729 -12.6437
lfingers 7.12502
lthumb 4.33838 17.2919
rfemur -22.5642 6.83905 17.9264
rtibia 8.09948
rfoot -18.251 -3.50205
rtoes -16.7529
lfemur -21.5458 -5.73274 -25.0978
ltibia 6.32745
lfoot -5.81767 -6.75335
ltoes -19.842
415
root 11.7907 17.9182 16.6176 -154.252 -0.45832 177.556
lowerback -31.3936 -2.74782 -8.02473
upperback -0.387801 -1.27152 -0.255971
thorax 16.1416 -1.41266 3.45637
lowerneck -3.21213 -2.63928 -0.686749
upperneck 12.9951 -3.54964 4.47027
head 4.5086 -1.31474 1.3302
rclavicle -2.48481e-015 -1.23246e-014
rhumerus -40.2002 -17.0289 -75.6816
rradius 35.8326
rwrist -2.52783
rhand -4.22151 -52.3929
rfingers 7.12502
rthumb 21.5412 278.785
lclavicle -2.48481e-015 -1.23246e-014
lhumerus -30.8903 3.01005 80.3729
lradius 28.5741
lwrist -0.759617
lhand -22.1636 -12.555
lfingers 7.12502
lthumb 4.25076 17.3824
rfemur -22.5896 6.69149 17.9412
rtibia 8.11876
rfoot -18.3302 -3.43286
rtoes -17.7917
lfemur -21.573 -5.69549 -25.1213
ltibia 6.33011
lfoot -5.76459 -6.78726
ltoes -20.2382
416
root 11.7912 17.9206 16.6142 -154.304 -0.477483 177.53
lowerback -31.5257 -2.78406 -8.01909
upperback -0.291326 -1.2948 -0.242555
thorax 16.3208 -1.42631 3.45518
lowerneck -3.21465 -2.57182 -0.806075
upperneck 12.8252 -3.4698 4.59356
head 4.45894 -1.28251 1.39139
rclavicle -1.09332e-014 2.98177e-014
rhumerus -40.0957 -17.1886 -75.5757
rradius 35.6476
rwrist -2.34277
rhand -4.67319 -53.4511
rfingers 7.12502
rthumb 21.1074 277.678
lclavicle -1.09332e-014 2.98177e-014
lhumerus -30.6446 3.06568 80.4364
lradius 28.4305
lwrist -0.707804
lhand -22.1743 -12.331
lfingers 7.12502
lthumb 4.24045 17.6066
rfemur -22.4756 6.65062 17.9308
rtibia 8.05745
rfoot -18.3296 -3.48126
rtoes -18.5184
lfemur -21.4625 -5.83449 -25.1302
ltibia 6.26002
lfoot -5.80967 -6.6228
ltoes -20.9613
417
root 11.7939 17.922 16.6143 -154.262 -0.431578 177.498
lowerback -31.5707 -2.78067 -8.05183
upperback -0.302972 -1.27616 -0.263
thorax 16.3237 -1.42167 3.45639
lowerneck -3.3403 -2.55784 -0.642163
upperneck 12.8542 -3.4492 4.40544
head 4.48259 -1.27551 1.3061
rclavicle 2.18663e-015 0
rhumerus -40.2163 -17.2228 -75.5573
rradius 35.6862
rwrist -2.40278
rhand -4.45702 -52.4833
rfingers 7.12502
rthumb 21.315 278.669
lclavicle 2.18663e-015 0
lhumerus -30.5218 3.01696 80.4544
lradius 28.3113
lwrist -0.854895
lhand -22.2504 -12.1047
lfingers 7.12502
lthumb 4.16697 17.8342
rfemur -22.5041 6.70333 17.8818
rtibia 8.01499
rfoot -18.2382 -3.45812
rtoes -17.3224
lfemur -21.4936 -5.82937 -25.1755
ltibia 6.24746
lfoot -5.86792 -6.64009
ltoes -20.5411
418
root 11.797 17.9218 16.6125 -154.136 -0.370732 177.455
lowerback -31.7485 -2.79578 -8.10771
upperback -0.326539 -1.26912 -0.277493
thorax 16.3729 -1.42787 3.46734
lowerneck -3.47592 -2.67209 -0.388891
upperneck 13.0015 -3.59507 4.11529
head 4.54505 -1.3468 1.16627
rclavicle 9.93923e-015 5.56597e-015
rhumerus -40.3048 -17.2531 -75.5422
rradius 35.7087
rwrist -2.35304
rhand -4.73057 -53.4242
rfingers 7.12502
rthumb 21.0523 277.699
lclavicle 9.93923e-015 5.56597e-015
lhumerus -30.5363 2.82749 80.5027
lradius 28.3533
lwrist -0.964784
lhand -22.4079 -12.2338
lfingers 7.12502
lthumb 4.01489 17.7081
rfemur -22.6901 6.73176 17.8038
rtibia 8.08754
rfoot -18.2418 -3.42763
rtoes -16.8945
lfemur -21.6161 -5.85607 -25.2124
ltibia 6.23765
lfoot -5.8639 -6.62697
ltoes -20.2125
